<svg height="512pt" viewBox="0 -3 512.00014 512" width="512pt" xmlns="http://www.w3.org/2000/svg"><path d="m425.226562 262.148438c-24.140624-5.773438-46.03125-13.585938-66.007812-29.011719-32.136719-24.824219-50.441406-61.964844-56.359375-101.675781-3.820313-25.632813-.238281-47.492188-17.933594-69.125-22.855469-27.941407-66.390625-37.070313-96.726562-15.46875-40.566407 28.894531-33.058594 91.214843-25.363281 133.332031 11.390624 62.339843 42.667968 120.046875 93.234374 159.144531 20.824219 16.105469 43.449219 29.941406 67.429688 40.835938 27.550781 12.519531 58.773438 25.378906 89.605469 23.386718 39.554687-2.554687 69.546875-36.6875 66.992187-76.242187-2.039062-31.527344-25.101562-58.050781-54.871094-65.175781zm0 0" fill="#ffc265"/><path d="m162.675781 190.285156c11.703125 14.136719 29.449219 23.566406 48.148438 24.871094 4.023437.28125 6.570312 4.429688 5.007812 8.152344-9.617187 22.882812-6.5 50.195312 10.421875 70.640625 16.921875 20.445312 43.171875 28.617187 67.449219 23.453125 3.945313-.839844 7.546875 2.433594 7.070313 6.441406-2.148438 18.058594 2.808593 36.925781 15.316406 52.042969.605468.730469 1.226562 1.449219 1.855468 2.148437 18.910157 21.054688 50.300782 25.476563 74.804688 11.707032 10.738281-6.035157 19.5-15.21875 24.691406-26.421876 17.878906-38.601562-9.703125-79.03125-48.949218-89.648437-9.195313-2.488281-19.140626-1.503906-20.960938-12.199219-1.621094-9.539062.972656-19.097656-1.609375-28.949218-2.53125-9.65625-7.195313-18.699219-13.558594-26.390626-7.546875-9.117187-17.402343-16.207031-28.464843-20.421874-13.875-5.289063-23.285157-8.671876-22-24.980469 1.210937-15.375-4.410157-30.335938-13.605469-42.488281-35.300781-46.660157-114.714844-33.515626-119.46875 30.097656-1.183594 15.867187 4.339843 30.460937 13.851562 41.945312zm0 0" fill="#ffb541"/><path d="m172.714844 201.664062c9.855468 11.898438 24.789062 19.832032 40.527344 20.929688 3.386718.238281 5.527343 3.730469 4.214843 6.863281-8.09375 19.257813-5.46875 42.25 8.769531 59.457031 14.242188 17.207032 36.335938 24.085938 56.769532 19.738282 3.320312-.707032 6.351562 2.050781 5.953125 5.421875-1.8125 15.199219 2.359375 31.078125 12.890625 43.800781.507812.617188 1.03125 1.222656 1.558594 1.8125 15.917968 17.71875 42.339843 21.441406 62.960937 9.851562 9.039063-5.078124 16.414063-12.808593 20.78125-22.238281 15.050781-32.488281-8.164063-66.519531-41.199219-75.453125-7.738281-2.09375-16.109375-1.265625-17.636718-10.265625-1.367188-8.03125.816406-16.074219-1.355469-24.367187-2.132813-8.128906-6.054688-15.738282-11.414063-22.210938-6.351562-7.675781-14.644531-13.644531-23.957031-17.191406-11.679687-4.449219-19.601563-7.292969-18.515625-21.023438 1.019531-12.941406-3.710938-25.53125-11.449219-35.757812-29.714843-39.273438-96.554687-28.210938-100.554687 25.328125-.996094 13.355469 3.652344 25.636719 11.65625 35.304687zm0 0" fill="#00b965"/><path d="m493.148438 351.96875c-4.59375-5.570312-10.816407-10.097656-19.152344-13.855469-17.789063-8.015625-37.996094-6.976562-56.832032-10.472656-10.492187-1.949219-20.878906-4.4375-31.113281-7.453125-20.066406-5.90625-39.527343-13.835938-58.046875-23.570312-25.964844-13.652344-47.03125-28.246094-63.175781-53.085938-9.496094-14.609375-16.675781-30.652344-22.515625-47.042969-13.34375-37.464843-16.960938-81.347656-13.519531-120.722656 1.574219-18.015625.503906-35.660156-12.355469-49.621094-18.785156-20.398437-50.625-25.644531-73.023438-8.175781-5.644531 4.402344-10.25 9.988281-13.851562 16.164062-7.246094 12.429688-10.460938 26.957032-11.777344 41.164063-1.234375 13.300781-1.996094 26.648437-2.285156 40-.148438 6.679687.035156 13.359375-.085938 20.035156-.625 34.546875 5.824219 70.5 16.859376 103.351563 7.191406 21.414062 17.621093 41.648437 30.34375 60.265625 6.363281 9.3125 13.300781 18.226562 20.695312 26.734375 13.054688 15.019531 27.03125 29.273437 42.210938 42.140625 7.457031 6.320312 15.199218 12.308593 23.253906 17.84375 4.1875 2.875 8.460937 5.632812 12.820312 8.253906 29.929688 18.046875 64.339844 30.652344 98.921875 37.792969 21.90625 4.523437 44.085938 7.75 66.375 9.632812 27.128907 2.292969 56.777344-2.578125 71.25-28.5 10.03125-17.964844 8.214844-44.851562-4.996093-60.878906zm0 0" fill="#ea4444"/><path d="m498.148438 412.851562c-14.476563 25.921876-44.121094 30.796876-71.253907 28.503907-22.289062-1.894531-44.464843-5.117188-66.371093-9.640625-34.582032-7.140625-68.992188-19.746094-98.929688-37.789063-4.355469-2.621093-8.628906-5.382812-12.8125-8.257812-8.0625-5.535157-15.800781-11.523438-23.257812-17.839844-15.179688-12.867187-29.15625-27.125-42.210938-42.140625-7.390625-8.511719-14.328125-17.421875-20.695312-26.734375-12.726563-18.621094-23.148438-38.855469-30.347657-60.273437-11.03125-32.847657-17.480469-68.800782-16.859375-103.351563.121094-6.667969-.0625-13.347656.089844-20.023437.289062-13.355469 1.050781-26.703126 2.28125-40.007813 1.324219-14.207031 4.535156-28.734375 11.785156-41.160156 3.59375-6.179688 8.199219-11.765625 13.847656-16.167969 20.082032-15.671875 47.757813-13.066406 66.808594 2.359375-12.605468-2.371094-25.921875.132813-36.761718 8.59375-5.058594 3.933594-9.171876 8.929687-12.398438 14.457031-6.476562 11.113282-9.359375 24.105469-10.53125 36.824219-1.109375 11.894531-1.78125 23.828125-2.042969 35.769531-.128906 5.980469.03125 11.957032-.078125 17.921875-.5625 30.898438 5.207032 63.066407 15.078125 92.453125 6.4375 19.152344 15.769531 37.242188 27.140625 53.902344 5.699219 8.332031 11.894532 16.300781 18.511719 23.910156 11.675781 13.4375 24.179687 26.179688 37.757813 37.695313 6.667968 5.65625 13.59375 11.011719 20.804687 15.957031 3.742187 2.574219 7.558594 5.039062 11.460937 7.390625 26.773438 16.140625 57.550782 27.414063 88.488282 33.800781 19.59375 4.042969 39.425781 6.9375 59.371094 8.621094 24.269531 2.050781 50.78125-2.3125 63.726562-25.5 4.132812-7.410156 6.015625-16.511719 5.6875-25.582031 10.152344 16.21875 10.832031 39.957031 1.710938 56.308593zm0 0" fill="#d93131"/><path d="m103.394531 241.257812c9.851563 11.902344 24.789063 19.835938 40.527344 20.933594 3.386719.238282 5.527344 3.730469 4.210937 6.863282-8.089843 19.257812-5.464843 42.246093 8.773438 59.457031 14.242188 17.207031 36.335938 24.085937 56.769531 19.734375 3.320313-.703125 6.351563 2.050781 5.949219 5.425781-1.808594 15.199219 2.363281 31.078125 12.894531 43.800781.507813.617188 1.027344 1.21875 1.558594 1.808594 15.914063 17.71875 42.335937 21.445312 62.960937 9.855469 9.039063-5.082031 16.410157-12.8125 20.78125-22.238281 15.050782-32.492188-8.164062-66.519532-41.199218-75.457032-7.738282-2.09375-16.109375-1.261718-17.640625-10.265625-1.363281-8.027343.820312-16.074219-1.351563-24.363281-2.132812-8.128906-6.058594-15.738281-11.414062-22.210938-6.351563-7.675781-14.644532-13.644531-23.957032-17.191406-11.679687-4.449218-19.601562-7.296875-18.519531-21.023437 1.019531-12.941407-3.710937-25.53125-11.449219-35.761719-29.710937-39.269531-96.550781-28.207031-100.550781 25.332031-.996093 13.355469 3.652344 25.636719 11.65625 35.300781zm0 0" fill="#00b965"/><path d="m296.949219 343.363281c-26.359375-7.671875-50.125-17.472656-71.367188-35.585937-34.179687-29.140625-52.414062-71.152344-56.824219-115.339844-2.851562-28.523438 2.273438-52.480469-16.117187-77.328125-23.753906-32.089844-71.363281-44.503906-106.03125-22.261719-46.363281 29.75-41.402344 99.003906-35.15625 145.945313 9.25 69.480469 40.71875 134.902343 94.488281 180.800781 22.148438 18.90625 46.402344 35.40625 72.308594 48.722656 29.769531 15.304688 63.574219 31.183594 97.742188 30.632813 43.835937-.707031 78.796874-36.8125 78.089843-80.648438-.5625-34.9375-24.621093-65.476562-57.132812-74.9375zm0 0" fill="#ffc265"/><path d="m354.085938 418.296875c.699218 43.84375-34.261719 79.945313-78.09375 80.648437-34.171876.550782-67.972657-15.320312-97.738282-30.628906-25.910156-13.316406-50.167968-29.816406-72.316406-48.71875-53.765625-45.902344-85.230469-111.324218-94.484375-180.804687-6.246094-46.9375-11.210937-116.191407 35.152344-145.945313 34.671875-22.246094 82.28125-9.824218 106.039062 22.265625.160157.21875.320313.429688.46875.652344-22.15625-17.242187-54.183593-21.515625-78.734375-5.769531-40.238281 25.820312-35.933594 85.914062-30.503906 126.652344 8.027344 60.304687 35.332031 117.082031 81.996094 156.910156 19.222656 16.410156 40.269531 30.726562 62.757812 42.28125 25.828125 13.285156 55.164063 27.0625 84.820313 26.578125 38.035156-.609375 68.382812-31.945313 67.769531-69.980469-.117188-7.378906-1.441406-14.527344-3.792969-21.246094 10.191407 13.195313 16.371094 29.605469 16.660157 47.105469zm0 0" fill="#ffb541"/><path d="m498.941406 347.191406c-3.144531-3.8125-6.921875-7.167968-11.378906-10.152344.214844-3.355468.25-6.753906.027344-10.199218-2.222656-34.378906-27.148438-63.984375-60.617188-71.992188-27.777344-6.648437-46.667968-14.917968-63.164062-27.65625-28.488282-22-47.496094-56.390625-53.519532-96.839844-.917968-6.152343-1.402343-12.207031-1.867187-18.0625-.976563-12.214843-1.894531-23.753906-6.425781-35.488281-1.492188-3.867187-5.839844-5.792969-9.707032-4.300781-3.871093 1.492188-5.796874 5.839844-4.300781 9.707031 3.742188 9.699219 4.578125 20.179688 5.460938 31.277344.488281 6.105469.992187 12.417969 1.984375 19.082031 6.601562 44.300782 27.625 82.128906 59.195312 106.511719 22.988282 17.75 47.703125 25.3125 68.847656 30.371094 27.125 6.492187 47.324219 30.488281 49.125 58.359375.039063.550781.046876 1.101562.066407 1.652344-11.625-4.335938-23.746094-5.589844-35.511719-6.796876-6.492188-.664062-12.621094-1.292968-18.625-2.410156-6.773438-1.257812-13.558594-2.78125-20.28125-4.511718-.894531-4.578126-2.355469-9.101563-4.410156-13.503907-8.425782-18.070312-25.597656-32.140625-45.933594-37.644531-1.957031-.527344-3.886719-.886719-5.59375-1.203125-6.28125-1.167969-6.34375-1.535156-6.605469-3.070313-.484375-2.871093-.398437-6.023437-.304687-9.363281.132812-4.703125.285156-10.035156-1.1875-15.648437-2.386719-9.109375-6.84375-17.789063-12.890625-25.09375-7.203125-8.703125-16.5625-15.417969-27.070313-19.421875l-.414062-.15625c-12.167969-4.632813-13.878906-5.792969-13.292969-13.257813 1.09375-13.882812-3.503906-28.398437-12.945313-40.882812-8.335937-11.019532-19.757812-18.902344-32.390624-23.066406-.359376-12.199219-.023438-24.597657 1.0625-37.007813.933593-10.679687 1.144531-22.296875-2.0625-33.476563 12.472656 1.402344 24.859374 6.300782 35.242187 14.609376 3.238281 2.589843 7.964844 2.066406 10.554687-1.171876 2.589844-3.238281 2.066407-7.964843-1.171874-10.554687-13.140626-10.519531-29.605469-16.988281-46.359376-18.222656-1.84375-.132813-3.671874-.199219-5.484374-.207031-1.46875-2.164063-3.136719-4.28125-5.03125-6.339844-22.203126-24.109375-58.730469-28.070313-83.164063-9.015625-6.140625 4.789062-11.429687 10.949219-15.71875 18.308593-6.933594 11.886719-11.113281 26.363282-12.773437 44.25-.085938.957032-.15625 1.921876-.238282 2.882813-1.554687-.441406-3.117187-.851563-4.695312-1.207031-22.34375-5.042969-44.652344-1.402344-62.816406 10.25-48.136719 30.886718-45.882813 98.125-38.542969 153.253906 9.945312 74.703125 44.414062 140.589844 97.054687 185.527344 3.15625 2.691406 6.386719 5.363281 9.601563 7.941406 3.238281 2.597656 7.960937 2.074219 10.554687-1.164062 2.59375-3.234376 2.074219-7.960938-1.160156-10.554688-3.097656-2.480469-6.207031-5.054688-9.246094-7.648438-49.820312-42.527343-82.464844-105.0625-91.917968-176.082031-6.753907-50.722656-9.246094-112.316406 31.765624-138.632812 14.753907-9.464844 33.007813-12.390625 51.402344-8.238281 17.800782 4.019531 34.035156 14.460937 44.539063 28.648437 12.394531 16.746094 12.914062 33.300781 13.511719 52.46875.210937 6.761719.429687 13.75 1.167968 21.136719 4.902344 49.089844 26.003906 91.820312 59.425782 120.3125 24.328124 20.738281 51.128906 30.382812 74.140624 37.078125 29.949219 8.71875 51.21875 36.617187 51.722657 67.851562.636719 39.621094-31.078125 72.378907-70.703125 73.015625-32.421875.511719-65.609375-15.109375-94.1875-29.800781-11.285156-5.800781-22.488282-12.355469-33.292969-19.472656l-1-.660157c-3.460937-2.285156-8.117187-1.328124-10.402344 2.136719-2.28125 3.460938-1.324219 8.117188 2.136719 10.402344l1 .660156c11.257812 7.417969 22.925781 14.242188 34.691406 20.289063 29.683594 15.261718 64.21875 31.476562 99.460938 31.476562.609375 0 1.226562-.003906 1.835937-.015625 40.691407-.65625 74.480469-29.332031 83.261719-67.3125 22.082031 4.542969 44.582031 7.804688 66.886719 9.691407 4.207031.355468 8.277343.53125 12.21875.53125 31.386719 0 54.148437-11.234376 66.21875-32.855469 11.636719-20.839844 9.105469-51.289063-5.757813-69.320313zm-243.316406-201.632812c7.222656 9.546875 10.757812 20.429687 9.953125 30.640625-1.511719 19.171875 11.46875 24.113281 22.917969 28.472656l.414062.15625c8.085938 3.082031 15.292969 8.253906 20.84375 14.960937 4.660156 5.632813 8.09375 12.316407 9.933594 19.328126.925781 3.53125.816406 7.363281.703125 11.417968-.109375 3.921875-.222656 7.972656.511719 12.300782 2.078125 12.234374 12.460937 14.164062 18.664062 15.320312 1.566406.289062 3.046875.566406 4.417969.9375 16.117187 4.359375 29.664063 15.382812 36.246094 29.492188.332031.710937.652343 1.46875.96875 2.25-17.035157-5.464844-33.722657-12.46875-49.703125-20.867188-25.105469-13.199219-44.976563-26.84375-60.375-50.53125-8.246094-12.6875-15.355469-27.5625-21.734375-45.46875-6.890625-19.339844-11.359375-41.191406-13.265625-64.128906 7.195312 3.285156 13.96875 8.398437 19.503906 15.71875zm43.421875 190.59375c-30.445313-8.859375-50.960937-19.054688-68.59375-34.089844-30.453125-25.960938-49.710937-65.160156-54.226563-110.375-.589843-5.914062-.824218-11.707031-1.007812-17.355469 4.015625 2.878907 7.773438 6.449219 11.085938 10.824219 7.21875 9.546875 10.753906 20.425781 9.949218 30.640625-1.507812 19.167969 11.46875 24.109375 22.921875 28.472656l.410157.15625c8.085937 3.082031 15.292968 8.253907 20.847656 14.960938 4.660156 5.632812 8.09375 12.316406 9.933594 19.328125.921874 3.53125.816406 7.363281.703124 11.417968-.109374 3.917969-.226562 7.972657.511719 12.300782 2.078125 12.234375 12.460938 14.164062 18.664063 15.320312 1.566406.289063 3.042968.566406 4.417968.9375 11.964844 3.234375 22.507813 10.152344 29.84375 19.269532-1.796874-.65625-3.609374-1.269532-5.460937-1.808594zm192.542969 73.035156c-10.648438 19.070312-32.199219 27.375-64.0625 24.679688-21.835938-1.84375-43.871094-5.042969-65.488282-9.507813-.191406-.039063-.378906-.082031-.566406-.121094.105469-2.003906.148438-4.023437.117188-6.058593-.429688-26.648438-13.378906-51.277344-33.6875-67.175782-.859375-3.097656-1.980469-6.160156-3.382813-9.164062-8.425781-18.074219-25.601562-32.144532-45.933593-37.644532-1.957032-.53125-3.890626-.890624-5.59375-1.207031-6.28125-1.167969-6.34375-1.535156-6.605469-3.070312-.488281-2.871094-.398438-6.023438-.304688-9.359375.132813-4.707032.28125-10.035156-1.1875-15.648438-2.386719-9.113281-6.847656-17.789062-12.890625-25.097656-7.203125-8.699219-16.5625-15.417969-27.070312-19.417969l-.414063-.15625c-12.171875-4.636719-13.878906-5.792969-13.292969-13.261719 1.09375-13.878906-3.503906-28.398437-12.945312-40.878906-6.40625-8.46875-14.636719-15.085937-23.835938-19.589844-1.136718-15.367187-4.292968-30.359374-15.769531-45.863281-8.660156-11.699219-20.53125-21.269531-34.007812-27.671875.183593-2.332031.375-4.660156.589843-6.976562 1.457032-15.664063 4.984376-28.117188 10.792969-38.074219 3.324219-5.699219 7.351563-10.421875 11.980469-14.03125 7.6875-5.992187 17.007812-8.902344 26.496094-8.902344 13.117187 0 26.550781 5.570313 36.386718 16.246094 11.425782 12.410156 11.75 28.425781 10.394532 43.882813-3.835938 43.90625 1.109375 87.90625 13.929687 123.894531 6.777344 19.027343 14.394531 34.929687 23.289063 48.617187 18.179687 27.96875 42.457031 43.269532 65.980468 55.636719 19.027344 10.003906 39.015626 18.121094 59.417969 24.128906 10.460938 3.082031 21.179688 5.648438 31.863281 7.632813 6.605469 1.226562 13.328126 1.914062 19.832032 2.582031 12.632812 1.296875 24.5625 2.519531 35.289062 7.355469 7.203125 3.242187 12.582032 7.097656 16.445313 11.785156 11.015625 13.359375 12.914062 36.886719 4.234375 52.4375zm0 0"/></svg>